# xmcd
#
# Track frame offsets: 
#        150
#        16947
#        28510
#        42573
#        64159
#        86715
#        98269
#        114787
#        128442
#        139901
#        155190
#        168199
#        189428
#        206259
#        224353
#        243832
#        259319
#        273562
#
# Disc length: 3831 seconds
#
# Revision: 3
# Processed by: cddbd v1.5.2PL0 Copyright (c) Steve Scherf et al.
# Submitted via: ExactAudioCopy v0.99pb5
#
DISCID=f20ef512
DTITLE=Various Artist - Bluegrass Today
DYEAR=2003
DGENRE=Bluegrass
TTITLE0=Ricky Skaggs - Shady Grove
TTITLE1=Ralph Stanley (with George Jones and Vince Gill) - Angel Band
TTITLE2=Vince Gill - High Lonesome Sound
TTITLE3=Earl Scruggs (with Glenn Duncan and Randy Scruggs) - Foggy Mou
TTITLE3=ntain Breakdown
TTITLE4=Nickel Creek - The Lighthouse's Tale
TTITLE5=Patty Loveless - The Boys Are Back in Town
TTITLE6=Del Mccoury - Nashville Cats
TTITLE7=Rhonda Vincent - Lonesome Wind Blues
TTITLE8=Dan Tyminski - Carry Me Across the Mountain
TTITLE9=Lynn Morris - Coat of Many Colors
TTITLE10=J.D. Crowe and the New South - Come on Down to My World
TTITLE11=Steve Earle and the Del McCoury Band - The Mountain
TTITLE12=Ralph Stanley (with Judy Marshall and Alison Krauss) - On Hea
TTITLE12=ven's Bright Shore
TTITLE13=The Cox Family - Blue Bayou
TTITLE14=Larry Cordle and Lonesome Standard Time - Murder on Music Row
TTITLE15=Mark O'Connor - Jerusalem's Ridge
TTITLE16=Jerry Douglas - Hey Joe
TTITLE17=Emmylou Harris and the Nash Ramblers - Calling My Children Ho
TTITLE17=me
EXTD=
EXTT0=
EXTT1=
EXTT2=
EXTT3=
EXTT4=
EXTT5=
EXTT6=
EXTT7=
EXTT8=
EXTT9=
EXTT10=
EXTT11=
EXTT12=
EXTT13=
EXTT14=
EXTT15=
EXTT16=
EXTT17=
PLAYORDER=
